#Comment line ignore any data following # character 
#Hierarchical Translation and Rotation (.htr) file 
[Header]	
#Header keywords are followed by a single value 
FileType HTR		#Single word string
DataType HTRS		#Translation followed by rotation and scale data
FileVersion 1		#integer
NumSegments 29		#integer
NumFrames 4		#integer
DataFrameRate 30		#integer, data frame rate in this file
EulerRotationOrder ZYX
CalibrationUnits mm
RotationUnits Degrees
GlobalAxisofGravity Y
BoneLengthAxis Y
ScaleFactor 1.00
[SegmentNames&Hierarchy]
#CHILD	PARENT
MASTER GLOBAL
weapon MASTER
back_slider weapon
front_bottom weapon
front_middle_part1 weapon
front_middle_part2 weapon
front_middle_part3 weapon
front_middle_part4 weapon
front_top weapon
wing_bottom_left weapon
wing_bottom_right weapon
wing_top_left weapon
wing_top_right weapon
front_bottom_rumble_left front_bottom
front_bottom_rumble_right front_bottom
back_rotate_bottom_left front_middle_part3
back_rotate_bottom_right front_middle_part3
back_rotate_top_left front_middle_part3
back_rotate_top_right front_middle_part3
front_middle_part3_left front_middle_part3
front_middle_part3_right front_middle_part3
wing_bottom_left_buckets_1 wing_bottom_left
wing_bottom_left_buckets_2 wing_bottom_left
wing_bottom_left_buckets_3 wing_bottom_left
wing_bottom_right_buckets wing_bottom_right
wing_top_left_buckets wing_top_left
wing_top_left_buckets_1 wing_top_left
wing_top_left_buckets_3 wing_top_left
wing_top_right_buckets wing_top_right
[BasePosition]
#SegmentName Tx, Ty, Tz, Rx, Ry, Rz, BoneLength
MASTER 0.000000 0.000000 0.000000 -90.000000 0.000000 0.000000 10.000000 
weapon 0.000000 0.000000 0.000000 0.000000 0.000000 0.000000 10.000000 
back_slider 0.000000 0.000000 0.000000 0.000000 0.000000 0.000000 10.000000 
front_bottom 0.000000 0.000000 0.000000 0.000000 0.000000 0.000000 10.000000 
front_middle_part1 0.000000 0.000000 0.000000 0.000000 0.000000 0.000000 10.000000 
front_middle_part2 0.000000 0.000000 0.000000 0.000000 0.000000 0.000000 10.000000 
front_middle_part3 0.000000 0.000000 0.000000 0.000000 0.000000 0.000000 10.000000 
front_middle_part4 0.000000 0.000000 0.000000 0.000000 0.000000 0.000000 10.000000 
front_top 0.000000 0.000000 0.000000 0.000000 0.000000 0.000000 10.000000 
wing_bottom_left 0.000000 0.000000 0.000000 0.000000 0.000000 0.000000 10.000000 
wing_bottom_right 0.000000 0.000000 0.000000 0.000000 0.000000 0.000000 10.000000 
wing_top_left 0.000000 0.000000 0.000000 0.000000 0.000000 0.000000 10.000000 
wing_top_right 0.000000 0.000000 0.000000 0.000000 0.000000 0.000000 10.000000 
front_bottom_rumble_left 0.000000 0.000000 0.000000 0.000000 0.000000 0.000000 10.000000 
front_bottom_rumble_right 0.000000 0.000000 0.000000 0.000000 0.000000 0.000000 10.000000 
back_rotate_bottom_left 0.000000 0.000000 0.000000 0.000000 0.000000 0.000000 10.000000 
back_rotate_bottom_right 0.000000 0.000000 0.000000 0.000000 0.000000 0.000000 10.000000 
back_rotate_top_left 0.000000 0.000000 0.000000 0.000000 0.000000 0.000000 10.000000 
back_rotate_top_right 0.000000 0.000000 0.000000 0.000000 0.000000 0.000000 10.000000 
front_middle_part3_left 0.000000 0.000000 0.000000 0.000000 0.000000 0.000000 10.000000 
front_middle_part3_right 0.000000 0.000000 0.000000 0.000000 0.000000 0.000000 10.000000 
wing_bottom_left_buckets_1 0.000000 0.000000 0.000000 0.000000 0.000000 0.000000 10.000000 
wing_bottom_left_buckets_2 0.000000 0.000000 0.000000 0.000000 0.000000 0.000000 10.000000 
wing_bottom_left_buckets_3 0.000000 0.000000 0.000000 0.000000 0.000000 0.000000 10.000000 
wing_bottom_right_buckets 0.000000 0.000000 0.000000 0.000000 0.000000 0.000000 10.000000 
wing_top_left_buckets 0.000000 0.000000 0.000000 0.000000 0.000000 0.000000 10.000000 
wing_top_left_buckets_1 0.000000 0.000000 0.000000 0.000000 0.000000 0.000000 10.000000 
wing_top_left_buckets_3 0.000000 0.000000 0.000000 0.000000 0.000000 0.000000 10.000000 
wing_top_right_buckets 0.000000 0.000000 0.000000 0.000000 0.000000 0.000000 10.000000 
#Beginning of Data. Separated by tabs
#Fr	Tx	Ty	Tz	Rx	Ry	Rz	SF
[MASTER]
35 0.000000 0.000000 0.000000 0.000000 0.000000 -0.000020 0.000000
36 0.000000 0.000000 0.000000 0.000000 0.000000 -0.000020 0.000000
37 0.000000 0.000000 0.000000 0.000000 0.000000 -0.000020 0.000000
38 0.000000 0.000000 0.000000 0.000000 0.000000 -0.000020 0.000000
[weapon]
35 0.000000 -79.014671 86.001648 0.000000 -0.000000 0.000000 116.788712
36 0.000000 -79.014671 86.001648 0.000000 -0.000000 0.000000 116.788712
37 0.000000 -79.014671 86.001648 0.000000 -0.000000 0.000000 116.788712
38 0.000000 -79.014671 86.001648 0.000000 -0.000000 0.000000 116.788712
[back_slider]
35 0.000114 -98.336128 -85.991974 0.000000 -0.000000 0.000000 130.631592
36 0.000076 -66.004639 -85.991974 0.000000 -0.000000 0.000000 108.403099
37 0.000076 -36.023129 -85.991974 0.000000 -0.000000 0.000000 93.232422
38 0.000076 -13.954625 -85.992126 0.000000 -0.000000 0.000000 87.117035
[front_bottom]
35 0.000038 596.333740 -255.693314 9.880543 -0.001511 179.998199 648.839783
36 0.000038 603.824463 -251.010620 9.930187 -0.001510 179.998199 653.919189
37 0.000038 610.142822 -247.060913 9.969903 -0.001509 179.998199 658.265442
38 0.000038 614.507141 -244.332886 9.989758 -0.001509 179.998199 661.299927
[front_middle_part1]
35 0.000000 519.313477 -85.992035 0.021351 83.698021 0.021351 526.384949
36 0.000000 519.313477 -85.992035 0.010581 77.263527 0.010581 526.384949
37 0.000000 519.313477 -85.992035 0.007288 71.465057 0.007288 526.384949
38 0.000000 519.313477 -85.992035 0.005727 66.348518 0.005727 526.384949
[front_middle_part2]
35 0.000000 477.040344 -85.992035 179.998825 -86.900856 179.998825 484.728912
36 0.000000 477.040344 -85.992035 0.001174 -86.662697 0.001174 484.728912
37 0.000000 477.040344 -85.992035 0.001177 -80.863136 0.001177 484.728912
38 0.000000 477.040344 -85.992035 0.001183 -75.754082 0.001183 484.728912
[front_middle_part3]
35 0.000038 -213.619659 -85.992126 0.000000 -0.000000 0.000000 230.278107
36 0.000038 -209.157349 -85.992126 0.000000 -0.000000 0.000000 226.144730
37 0.000038 -205.727402 -85.991974 0.000000 -0.000000 0.000000 222.976181
38 0.000038 -203.525772 -85.992126 0.000000 -0.000000 0.000000 220.946564
[front_middle_part4]
35 0.000000 -443.853668 -85.992035 0.000000 -0.000000 0.000000 452.106964
36 0.000000 -443.853668 -85.992035 0.000000 -0.000000 0.000000 452.106964
37 0.000000 -443.853668 -85.992035 0.000000 -0.000000 0.000000 452.106964
38 0.000000 -443.853668 -85.992035 0.000000 -0.000000 0.000000 452.106964
[front_top]
35 0.000000 523.450989 -157.672974 16.890471 0.001398 0.001886 546.682434
36 0.000000 523.450989 -157.672974 14.915419 0.001430 0.001861 546.682434
37 0.000000 523.450989 -157.672974 15.938554 0.001414 0.001874 546.682434
38 0.000000 523.450989 -157.672974 17.843533 0.001382 0.001897 546.682434
[wing_bottom_left]
35 -124.333710 235.191696 -217.766312 164.547379 53.482964 161.018951 343.796692
36 -124.333710 235.191696 -217.766312 165.648300 53.697090 162.387131 343.796692
37 -124.333710 235.191696 -217.766312 165.648300 53.697109 162.387146 343.796692
38 -124.333710 235.191696 -217.766312 168.042847 54.105503 165.349594 343.796692
[wing_bottom_right]
35 124.947586 235.191696 -217.766144 0.000000 54.999989 0.000000 344.019073
36 124.947586 235.191696 -217.766144 0.000000 54.999989 0.000000 344.019073
37 124.947586 235.191696 -217.766144 0.000000 54.999989 0.000000 344.019073
38 124.947586 235.191696 -217.766144 0.000000 54.999989 0.000000 344.019073
[wing_top_left]
35 -124.333710 235.191696 62.502743 -162.811081 -53.099827 158.852081 273.277527
36 -124.333710 235.191696 62.502743 -163.624725 -53.287579 159.870636 273.277527
37 -124.333710 235.191696 62.502743 -164.279465 -53.423042 160.685318 273.277527
38 -124.333710 235.191696 62.502743 -164.712646 -53.517708 161.226318 273.277527
[wing_top_right]
35 131.595657 235.191696 62.502682 -0.000000 -55.000015 0.000000 276.657074
36 131.595657 235.191696 62.502682 -0.000000 -55.000015 0.000000 276.657074
37 131.595657 235.191696 62.502682 -0.000000 -55.000015 0.000000 276.657074
38 131.595657 235.191696 62.502682 -0.000000 -55.000015 0.000000 276.657074
[front_bottom_rumble_left]
35 163.070297 263.743958 -16.969442 -129.881882 18.229330 75.387009 310.549133
36 163.070297 263.743958 -16.969442 -129.881882 18.229330 75.387009 310.549133
37 163.070297 263.743958 -16.969442 -129.881882 18.229330 75.387009 310.549133
38 163.070297 263.743958 -16.969442 -129.881882 18.229330 75.387009 310.549133
[front_bottom_rumble_right]
35 -163.070480 263.743835 -16.969442 -50.118145 18.229362 104.612976 310.549133
36 -163.070480 263.743835 -16.969442 -50.118145 18.229362 104.612976 310.549133
37 -163.070480 263.743835 -16.969442 -50.118145 18.229362 104.612976 310.549133
38 -163.070480 263.743835 -16.969442 -50.118145 18.229362 104.612976 310.549133
[back_rotate_bottom_left]
35 -38.067558 -195.870575 -38.097980 0.000000 -0.000000 0.000000 203.140045
36 -38.067558 -195.870575 -38.097980 0.000000 -0.000000 0.000000 203.140045
37 -38.067558 -195.870575 -38.097980 0.000000 -0.000000 0.000000 203.140045
38 -38.067558 -195.870575 -38.097980 0.000000 -0.000000 0.000000 203.140045
[back_rotate_bottom_right]
35 38.098610 -195.870575 -38.057903 0.000000 -0.000000 0.000000 203.138351
36 38.098610 -195.870575 -38.057903 0.000000 -0.000000 0.000000 203.138351
37 38.098610 -195.870575 -38.057903 0.000000 -0.000000 0.000000 203.138351
38 38.098610 -195.870575 -38.057903 0.000000 -0.000000 0.000000 203.138351
[back_rotate_top_left]
35 -38.074085 -195.870575 38.105885 0.000000 -0.000000 0.000000 203.142746
36 -38.074085 -195.870575 38.105885 0.000000 -0.000000 0.000000 203.142746
37 -38.074085 -195.870575 38.105885 0.000000 -0.000000 0.000000 203.142746
38 -38.074085 -195.870575 38.105885 0.000000 -0.000000 0.000000 203.142746
[back_rotate_top_right]
35 38.111603 -195.870575 38.079086 0.000000 -0.000000 0.000000 203.144760
36 38.111603 -195.870575 38.079086 0.000000 -0.000000 0.000000 203.144760
37 38.111603 -195.870575 38.079086 0.000000 -0.000000 0.000000 203.144760
38 38.111603 -195.870575 38.079086 0.000000 -0.000000 0.000000 203.144760
[front_middle_part3_left]
35 -90.176353 364.727234 0.463104 89.998680 -0.000408 -34.443077 375.709900
36 -90.176353 364.727234 0.463104 89.997467 -0.000801 -35.102699 375.709900
37 -90.176353 364.727234 0.463104 89.997185 -0.000893 -35.315483 375.709900
38 -90.176353 364.727234 0.463104 89.999573 -0.000130 -34.318615 375.709900
[front_middle_part3_right]
35 91.046051 364.727081 0.046265 -90.000000 0.000003 180.000000 375.919159
36 91.046051 364.727081 0.046265 -90.000000 0.000003 180.000000 375.919159
37 91.046051 364.727081 0.046265 -90.000000 0.000003 180.000000 375.919159
38 91.046051 364.727081 0.046265 -90.000000 0.000003 180.000000 375.919159
[wing_bottom_left_buckets_1]
35 -47.610477 -288.454193 -9.889640 -0.000027 0.000020 -0.000035 292.524170
36 -47.610477 -288.454193 -9.889640 -0.000027 0.000020 -0.000035 292.524170
37 -47.610477 -288.454193 -9.889640 -0.000027 0.000020 -0.000035 292.524170
38 -47.610477 -288.454193 -9.889640 -0.000027 0.000020 -0.000035 292.524170
[wing_bottom_left_buckets_2]
35 -47.610565 -358.672546 -9.889595 -0.000031 -0.000003 -0.000031 361.953827
36 -47.610565 -358.672546 -9.889595 -0.000031 -0.000003 -0.000031 361.953827
37 -47.610565 -358.672546 -9.889595 -0.000031 -0.000003 -0.000031 361.953827
38 -47.610565 -358.672546 -9.889595 -0.000031 -0.000003 -0.000031 361.953827
[wing_bottom_left_buckets_3]
35 -47.610672 -428.104828 -9.889513 -0.000027 0.000020 -0.000035 430.857635
36 -47.610672 -428.104828 -9.889513 -0.000027 0.000020 -0.000035 430.857635
37 -47.610672 -428.104828 -9.889513 -0.000027 0.000020 -0.000035 430.857635
38 -47.610672 -428.104828 -9.889513 -0.000027 0.000020 -0.000035 430.857635
[wing_bottom_right_buckets]
35 -47.962635 -358.672546 9.386807 0.000027 0.000061 -0.000035 361.986908
36 -47.962635 -358.672546 9.386807 0.000027 0.000061 -0.000035 361.986908
37 -47.962635 -358.672546 9.386807 0.000027 0.000061 -0.000035 361.986908
38 -47.962635 -358.672546 9.386807 0.000027 0.000061 -0.000035 361.986908
[wing_top_left_buckets]
35 -45.484066 -358.586609 10.598831 0.000027 0.000000 -0.000031 361.615112
36 -45.484066 -358.586609 10.598831 0.000027 0.000000 -0.000031 361.615112
37 -45.484066 -358.586609 10.598831 0.000027 0.000000 -0.000031 361.615112
38 -45.484066 -358.586609 10.598831 0.000027 0.000000 -0.000031 361.615112
[wing_top_left_buckets_1]
35 -45.484005 -287.973450 10.598879 0.000027 0.000000 -0.000035 291.735931
36 -45.484005 -287.973450 10.598879 0.000027 0.000000 -0.000035 291.735931
37 -45.484005 -287.973450 10.598879 0.000027 0.000000 -0.000035 291.735931
38 -45.484005 -287.973450 10.598879 0.000027 0.000000 -0.000035 291.735931
[wing_top_left_buckets_3]
35 -45.484154 -426.601654 10.598794 0.000027 0.000000 -0.000035 429.150452
36 -45.484154 -426.601654 10.598794 0.000027 0.000000 -0.000035 429.150452
37 -45.484154 -426.601654 10.598794 0.000027 0.000000 -0.000035 429.150452
38 -45.484154 -426.601654 10.598794 0.000027 0.000000 -0.000035 429.150452
[wing_top_right_buckets]
35 -46.906902 -358.586700 -9.449236 -0.000044 -0.000038 -0.000035 361.765076
36 -46.906902 -358.586700 -9.449236 -0.000044 -0.000038 -0.000035 361.765076
37 -46.906902 -358.586700 -9.449236 -0.000044 -0.000038 -0.000035 361.765076
38 -46.906902 -358.586700 -9.449236 -0.000044 -0.000038 -0.000035 361.765076
